# xmcd
#
# Track frame offsets:
#	150
#	14835
#	32197
#	48117
#	63560
#	77822
#	96710
#	111325
#	126635
#	138727
#	152370
#	163297
#	177695
#	190445
#	201482
#	214152
#
# Disc length: 3034 seconds
#
# Revision: 2
# Processed by: cddbd v1.5.1PL0 Copyright (c) Steve Scherf et al.
# Submitted via: EasyCDDAExtractor 7.0.6.1
#
DISCID=060bd810
DTITLE=Various Artist -  Tony Christie and Glen Campbell The Very Best Of
DYEAR=1900
DGENRE=Country
TTITLE0=Tony Christie - Is This The Way To Amarillo
TTITLE1=Tony Christie - Happy Birthday Baby
TTITLE2=Tony Christie - I Did What I Did For Maria
TTITLE3=Tony Christie - Don't Go Down To Reno
TTITLE4=Tony Christie - Daddy Don't You Walk So Fast
TTITLE5=Tony Christie - Solitare
TTITLE6=Tony Christie - Tie A Yellow Ribbon (Around The Old Oak Tree)
TTITLE7=Tony Christie - Las Vegas
TTITLE8=Glen Campbell - Galveston
TTITLE9=Glen Campbell  - Wichita Lineman
TTITLE10=Glen Campbell - Try A Little Kindness
TTITLE11=Glen Campbell - Rhinestone Cowboy
TTITLE12=Glen Campbell  - Bonapartes Retreat
TTITLE13=Glen Campbell - It's Only Make Believe
TTITLE14=Glen Campbell - I Knew Jesus (Before He Was A Superstar)
TTITLE15=Glen Campbell - Southern Nights
EXTD=
EXTT0=
EXTT1=
EXTT2=
EXTT3=
EXTT4=
EXTT5=
EXTT6=
EXTT7=
EXTT8=
EXTT9=
EXTT10=
EXTT11=
EXTT12=
EXTT13=
EXTT14=
EXTT15=
PLAYORDER=
